#tb 0: 1/25
0,          0,          0,        1,  6220800, 0xf81873fe
0,          1,          1,        1,  6220800, 0x7b96fbdc
0,          2,          2,        1,  6220800, 0x75dbafc4
0,          3,          3,        1,  6220800, 0x7524301e
0,          4,          4,        1,  6220800, 0x0f3621ab
0,          5,          5,        1,  6220800, 0xa5e25b35
0,          6,          6,        1,  6220800, 0x063a8116
0,          7,          7,        1,  6220800, 0x48ebc8ff
0,          8,          8,        1,  6220800, 0x1f635df8
0,          9,          9,        1,  6220800, 0xe282c8bd
